<?xml version="1.0" encoding="UTF-8" standalone="no"?>
<!DOCTYPE svg PUBLIC "-//W3C//DTD SVG 1.1//EN" "http://www.w3.org/Graphics/SVG/1.1/DTD/svg11.dtd">
<svg width="25%" height="25%" viewBox="0 0 96 96" version="1.1" xmlns="http://www.w3.org/2000/svg" xmlns:xlink="http://www.w3.org/1999/xlink" xml:space="preserve" xmlns:serif="http://www.serif.com/" style="fill-rule:evenodd;clip-rule:evenodd;stroke-linecap:round;stroke-linejoin:round;stroke-miterlimit:1.5;">
    <g transform="matrix(1.33456,0,0,1.33456,7.03356,6.40845)">
        <path d="M62.903,21.874L62.903,58.404C62.903,61.559 60.342,64.121 57.186,64.121L20.656,64.121C17.501,64.121 14.94,61.559 14.94,58.404L14.94,21.874C14.94,18.719 17.501,16.158 20.656,16.158L57.186,16.158C60.342,16.158 62.903,18.719 62.903,21.874Z" style="fill:rgb(91,91,101);fill-opacity:0;stroke:rgb(91,91,101);stroke-width:5.25px;"/>
    </g>
    <g transform="matrix(0.96006,-0.252634,-0.252634,0.96006,22.6608,23.6608)">
        <path d="M9.254,9.254L62.42,62.42" style="fill:none;stroke:rgb(91,91,101);stroke-width:5.65px;"/>
    </g>
    <g transform="matrix(1.19134,0,0,1,2.93958,15.8413)">
        <path d="M57.129,34.171L57.129,56.159L38.643,56.159" style="fill:rgb(91,91,101);fill-opacity:0;stroke:rgb(91,91,101);stroke-width:6.36px;"/>
    </g>
    <g transform="matrix(1.33456,0,0,1.04925,-14.9198,-10.3039)">
        <path d="M14.94,58.404L14.94,21.874" style="fill:none;stroke:rgb(91,91,101);stroke-width:5.83px;"/>
    </g>
    <g transform="matrix(1.33456,0,0,1.33456,-14.9198,-16.5449)">
        <path d="M14.94,21.874C14.94,20.297 15.58,18.867 16.615,17.833C17.65,16.798 19.079,16.158 20.656,16.158" style="fill:rgb(91,91,101);fill-opacity:0;stroke:rgb(91,91,101);stroke-width:5.25px;"/>
    </g>
    <g transform="matrix(1.04925,0,0,1.33456,-9.02624,-16.5449)">
        <path d="M20.656,16.158L57.186,16.158" style="fill:none;stroke:rgb(91,91,101);stroke-width:5.83px;"/>
    </g>
</svg>
